<svg width="115" height="40" viewBox="0 0 115 40" fill="none" xmlns="http://www.w3.org/2000/svg">
<g id="logo-partner">
<path id="Vector" d="M10.4651 10.5195H4V36.6791H10.4651V10.5195Z" fill="white"/>
<path id="Vector_2" d="M27.5761 9.98438C35.1821 9.98438 40.8865 15.7046 40.8865 23.3315C40.8865 30.9584 35.1821 36.6785 27.5761 36.6785C19.9701 36.6785 14.2656 30.9584 14.2656 23.3315C14.2656 15.7046 19.9701 9.98438 27.5761 9.98438ZM27.5761 16.4672C23.5456 16.4672 20.7307 19.2846 20.7307 23.3315C20.7307 27.3783 23.5438 30.1957 27.5761 30.1957C31.6083 30.1957 34.4215 27.373 34.4215 23.3315C34.4215 19.2899 31.6065 16.4672 27.5761 16.4672Z" fill="white"/>
<path id="Vector_3" d="M61.3144 24.3481L50.5469 10.584L50.5043 10.527H50.5025L50.499 10.5234L50.4954 10.527H44.6914V36.6794H51.1565V21.8658L62.7272 36.6794H68.0904V18.2501L61.3144 24.3481Z" fill="white"/>
<path id="Vector_4" d="M79.8791 10.5176H73.4141V36.6771H79.8791V10.5176Z" fill="white"/>
<path id="Vector_5" d="M83.1875 32.6495L87.2215 27.8203C89.8356 29.8785 92.679 30.9655 95.7 30.9655C97.6779 30.9655 98.8988 30.2901 98.8988 29.1675V29.0855C98.8988 27.9628 97.861 27.4015 94.2784 26.5408C88.716 25.2667 84.4226 23.6896 84.4226 18.3437V18.2688C84.4226 13.4022 88.2682 9.88281 94.5396 9.88281C98.9823 9.88281 102.457 11.0803 105.293 13.3648L101.669 18.4969C99.2809 16.7755 96.6668 15.9148 94.3512 15.9148C92.5972 15.9148 91.5612 16.6276 91.5612 17.5988V17.6808C91.5612 18.8783 92.6363 19.3933 96.2936 20.2272C102.197 21.5726 106.002 23.7787 106.002 28.3887V28.4636C106.002 33.8095 101.781 36.9993 95.4353 36.9993C90.8059 36.9922 86.436 35.5327 83.1875 32.6495Z" fill="white"/>
<g id="b">
<path id="Vector_6" d="M61.3555 23.2429L67.0955 17.97C68.6114 16.6335 69.4804 14.8872 69.4804 12.8628V12.8379L61.3555 20.1761V23.2429Z" fill="white"/>
<path id="Vector_7" d="M61.3555 19.0734L68.3963 12.6921C69.9264 11.3503 70.8043 9.40969 70.8043 7.37109L61.3555 15.8231V19.0734Z" fill="white"/>
<path id="Vector_8" d="M71.9523 2L61.3555 11.4196V14.6717L69.539 7.3121C71.0726 5.97561 71.9523 4.03681 71.9523 2Z" fill="white"/>
</g>
<path id="&#194;&#174;" opacity="0.9" d="M109.633 12.8242C109.094 12.8242 108.594 12.6894 108.133 12.4199C107.672 12.1503 107.307 11.7851 107.037 11.3242C106.768 10.8633 106.633 10.3633 106.633 9.82422C106.633 9.28509 106.768 8.78509 107.037 8.32422C107.307 7.86335 107.672 7.49813 108.133 7.22857C108.594 6.959 109.094 6.82422 109.633 6.82422C110.172 6.82422 110.672 6.959 111.133 7.22857C111.594 7.49813 111.959 7.86335 112.228 8.32422C112.498 8.78509 112.633 9.28509 112.633 9.82422C112.633 10.3633 112.498 10.8633 112.228 11.3242C111.959 11.7851 111.594 12.1503 111.133 12.4199C110.672 12.6894 110.172 12.8242 109.633 12.8242ZM109.633 12.2242C110.068 12.2242 110.468 12.1155 110.833 11.8981C111.207 11.6807 111.502 11.3894 111.72 11.0242C111.937 10.6503 112.046 10.2503 112.046 9.82422C112.046 9.38944 111.937 8.98944 111.72 8.62422C111.502 8.25031 111.207 7.959 110.833 7.75031C110.468 7.53291 110.068 7.42422 109.633 7.42422C109.207 7.42422 108.807 7.53291 108.433 7.75031C108.068 7.959 107.776 8.25031 107.559 8.62422C107.342 8.98944 107.233 9.38944 107.233 9.82422C107.233 10.2503 107.342 10.6503 107.559 11.0242C107.776 11.3894 108.068 11.6807 108.433 11.8981C108.807 12.1155 109.207 12.2242 109.633 12.2242ZM108.642 8.35031H109.881C110.133 8.35031 110.355 8.44161 110.546 8.62422C110.737 8.80683 110.833 9.02857 110.833 9.28944C110.833 9.48944 110.768 9.6677 110.637 9.82422C110.515 9.98074 110.363 10.0851 110.181 10.1373L110.155 10.1633L110.937 11.272V11.2981H110.285L109.555 10.1894H109.215V11.2981H108.642V8.35031ZM109.828 9.6677C109.942 9.6677 110.042 9.63292 110.128 9.56335C110.215 9.49378 110.259 9.40248 110.259 9.28944C110.259 9.18509 110.22 9.09378 110.142 9.01552C110.063 8.93726 109.963 8.89813 109.842 8.89813H109.215V9.6677H109.828Z" fill="white"/>
</g>
</svg>
