<svg width="149" height="34" viewBox="0 0 149 34" fill="none" xmlns="http://www.w3.org/2000/svg">
<g id="KnowYourTGS_Logo_KO 1" clip-path="url(#clip0_1767_8101)">
<path id="Vector" d="M135.565 26.8365C128.189 26.8365 122.235 20.8491 122.235 13.4182C122.235 5.98742 128.189 0 135.565 0C142.941 0 148.895 5.98742 148.895 13.4182C148.895 20.8491 142.941 26.8365 135.565 26.8365ZM129.927 8.7673H132.93V7.69811H125.87V8.7673H128.821V18.6038H129.927V8.7673ZM137.356 18.6038C137.725 18.4969 138.041 18.3899 138.305 18.2296C138.568 18.0692 138.779 17.9088 138.937 17.7484C139.095 17.5881 139.2 17.4277 139.306 17.3208L139.358 17.2673V13.2579H135.986V14.327H138.305V16.8931C138.252 16.9465 138.199 17 138.094 17.1069C137.988 17.2138 137.83 17.2673 137.672 17.3742C137.514 17.4811 137.303 17.5346 137.04 17.5881C136.777 17.6415 136.513 17.695 136.197 17.695C135.828 17.695 135.459 17.6415 135.143 17.4811C134.827 17.3208 134.564 17.1069 134.353 16.8396C134.142 16.5723 133.984 16.1981 133.826 15.7704C133.721 15.3428 133.668 14.8616 133.668 14.2736V11.8145C133.668 10.7453 133.879 9.88994 134.3 9.35535C134.722 8.82076 135.301 8.55346 136.092 8.55346C136.46 8.55346 136.777 8.60692 137.04 8.71384C137.303 8.82075 137.514 8.98113 137.672 9.14151C137.83 9.35535 137.988 9.56918 138.094 9.83648C138.199 10.1038 138.252 10.4245 138.305 10.7987V10.9057H139.411V10.7453C139.358 10.2642 139.306 9.78302 139.148 9.35535C138.989 8.92767 138.779 8.60692 138.515 8.33962C138.252 8.07233 137.883 7.85849 137.514 7.69811C137.145 7.53774 136.671 7.48428 136.144 7.48428C135.617 7.48428 135.091 7.5912 134.669 7.75157C134.248 7.96541 133.879 8.23271 133.563 8.60692C133.247 8.98113 133.036 9.40881 132.878 9.99686C132.72 10.5314 132.667 11.173 132.667 11.8679V14.327C132.667 15.022 132.772 15.6635 132.93 16.1981C133.088 16.7327 133.352 17.2138 133.668 17.5881C133.984 17.9623 134.353 18.2296 134.827 18.4434C135.249 18.6572 135.776 18.7107 136.302 18.7107C136.566 18.7642 136.987 18.7107 137.356 18.6038ZM143.889 18.6038C144.206 18.4969 144.522 18.3365 144.785 18.1226C145.049 17.9088 145.207 17.6415 145.365 17.3742C145.523 17.0535 145.575 16.7327 145.575 16.3585C145.575 15.9843 145.523 15.6635 145.417 15.3962C145.312 15.1289 145.101 14.8616 144.89 14.6478C144.68 14.434 144.416 14.2736 144.1 14.1132C143.784 13.9528 143.415 13.8459 143.046 13.6855C142.678 13.5786 142.361 13.4717 142.151 13.3648C141.887 13.2579 141.729 13.1509 141.571 12.9906C141.413 12.8836 141.308 12.7233 141.255 12.6164C141.202 12.456 141.15 12.2956 141.15 12.1352C141.15 11.9748 141.202 11.761 141.255 11.6006C141.308 11.4403 141.413 11.2799 141.571 11.173C141.729 11.066 141.887 10.9591 142.098 10.9057C142.52 10.7453 143.152 10.7453 143.573 10.9057C143.784 11.0126 143.942 11.1195 144.1 11.2264C144.258 11.3868 144.364 11.5472 144.416 11.761C144.469 11.9748 144.522 12.1887 144.522 12.456V12.5629H145.575V12.456C145.575 12.0818 145.523 11.7075 145.365 11.3868C145.259 11.066 145.049 10.7453 144.785 10.5314C144.522 10.2642 144.258 10.1038 143.889 9.9434C143.573 9.78302 143.152 9.72956 142.73 9.72956C142.361 9.72956 141.993 9.78302 141.624 9.88994C141.308 9.99686 140.992 10.1572 140.781 10.3711C140.517 10.5849 140.359 10.8522 140.201 11.1195C140.043 11.3868 139.991 11.761 139.991 12.0818C139.991 12.456 140.043 12.7767 140.201 13.044C140.307 13.3113 140.517 13.5786 140.728 13.7925C140.939 14.0063 141.255 14.1667 141.571 14.327C141.887 14.4874 142.256 14.5943 142.625 14.7013C142.994 14.8082 143.31 14.9151 143.521 15.022C143.731 15.1289 143.942 15.2358 144.1 15.3962C144.258 15.5031 144.311 15.6635 144.364 15.8239C144.416 15.9843 144.469 16.1447 144.469 16.3585C144.469 16.5723 144.416 16.7327 144.364 16.8931C144.311 17.0535 144.153 17.2138 144.047 17.3208C143.889 17.4277 143.731 17.5346 143.521 17.5881C143.099 17.695 142.572 17.7484 142.098 17.5881C141.887 17.5346 141.677 17.4277 141.466 17.3208C141.308 17.2138 141.15 17 141.044 16.7862C140.939 16.5723 140.886 16.305 140.886 15.9843V15.8774H139.832V16.0377C139.832 16.5189 139.938 16.9465 140.096 17.2673C140.254 17.5881 140.517 17.9088 140.781 18.1226C141.044 18.3365 141.413 18.4969 141.729 18.6038C142.098 18.7107 142.414 18.7642 142.783 18.7642C143.152 18.7642 143.521 18.7107 143.889 18.6038Z" fill="white"/>
<g id="Group">
<g id="Group_2">
<path id="Vector_2" d="M4.79455 14.1151L1.94943 17.483V26.4642H0V1.44531H1.94943V14.7566L4.63649 11.3352L12.2762 1.44531H14.6998L6.11174 12.5648L15.3847 26.4107H13.0138L4.79455 14.1151Z" fill="white"/>
<path id="Vector_3" d="M17.0707 7.85859L17.1234 10.7988C17.6502 9.78312 18.3352 8.98123 19.1782 8.39318C20.0212 7.80513 20.9695 7.48438 22.0233 7.48438C22.8136 7.48438 23.4985 7.59129 24.0781 7.85859C24.6577 8.12588 25.1845 8.5001 25.606 9.03469C26.0275 9.56928 26.3437 10.2642 26.5544 11.1731C26.7652 12.0284 26.8705 13.0976 26.8705 14.3271V26.4089H25.0265V14.3271C25.0265 13.3649 24.9211 12.563 24.763 11.9215C24.605 11.28 24.3415 10.7454 24.0781 10.3712C23.8147 9.99695 23.3932 9.72966 22.9717 9.56928C22.5502 9.4089 22.0233 9.30198 21.4964 9.30198C20.9168 9.30198 20.39 9.4089 19.9685 9.6762C19.4943 9.89004 19.0728 10.2108 18.704 10.6385C18.3352 11.0127 18.019 11.4938 17.7556 11.9749C17.4922 12.4561 17.2814 12.9907 17.0707 13.5787V26.4624H15.2793V7.85859H17.0707Z" fill="white"/>
<path id="Vector_4" d="M28.8201 16.1982C28.8201 14.8083 28.9781 13.5253 29.2943 12.4561C29.6104 11.3869 30.0846 10.4781 30.6641 9.72966C31.2437 8.98123 31.9286 8.44664 32.7716 8.07243C33.6146 7.69821 34.5103 7.48438 35.5114 7.48438C36.5124 7.48438 37.4081 7.69821 38.2511 8.07243C39.0941 8.44664 39.779 9.03469 40.3586 9.72966C40.9382 10.4781 41.4124 11.3869 41.7285 12.4561C42.0446 13.5253 42.2027 14.7548 42.2027 16.1982V18.1227C42.2027 19.5127 42.0446 20.7957 41.7285 21.8649C41.4124 22.9341 40.9382 23.8429 40.3586 24.5913C39.779 25.3397 39.0941 25.8743 38.2511 26.2485C37.4081 26.6227 36.5124 26.8366 35.5114 26.8366C34.5103 26.8366 33.6146 26.6227 32.7716 26.2485C31.9286 25.8743 31.2437 25.3397 30.6641 24.5913C30.0846 23.8429 29.6104 22.9875 29.2943 21.8649C28.9781 20.7957 28.8201 19.5661 28.8201 18.1227V16.1982ZM30.7168 18.1227C30.7168 19.1919 30.8222 20.1542 31.0329 21.0095C31.2437 21.8649 31.5598 22.5598 31.9813 23.1479C32.4028 23.7359 32.877 24.2171 33.5092 24.5378C34.0888 24.8586 34.7737 25.019 35.5641 25.019C36.3544 25.019 37.092 24.8586 37.6716 24.5378C38.2511 24.2171 38.778 23.7359 39.1468 23.1479C39.5156 22.5598 39.8317 21.8114 40.0425 21.0095C40.2532 20.1542 40.3586 19.1919 40.3586 18.1227V16.1982C40.3586 15.1825 40.2532 14.2202 40.0425 13.3649C39.8317 12.5095 39.5156 11.7611 39.0941 11.1731C38.6726 10.585 38.1984 10.1039 37.5662 9.78312C36.9866 9.46236 36.3017 9.30198 35.5114 9.30198C34.7737 9.30198 34.0888 9.46236 33.5092 9.78312C32.9297 10.1039 32.4028 10.585 31.9813 11.1731C31.5598 11.7611 31.2437 12.5095 31.0329 13.3649C30.8222 14.2202 30.7168 15.1825 30.7168 16.1982V18.1227Z" fill="white"/>
<path id="Vector_5" d="M47.9455 22.1891L48.1036 23.2048L48.3143 22.0822L52.0551 7.80859H53.6358L57.3239 21.9753L57.5873 23.4187L57.7981 22.1356L60.9593 7.86205H62.9087L58.4303 26.4124H56.8497L52.8981 11.6576L52.7928 11.23L52.7401 11.7111L48.8412 26.4658H47.2606L42.8348 7.91551H44.7316L47.9455 22.1891Z" fill="white"/>
<path id="Vector_6" d="M74.5 23.2583L78.873 7.80859H80.8752L74.4473 29.4061C74.2892 29.8338 74.1312 30.3149 73.9204 30.8495C73.7097 31.3841 73.4462 31.8652 73.1301 32.3463C72.814 32.8275 72.3925 33.2017 71.8656 33.5224C71.3387 33.8432 70.7592 34.0036 70.0742 34.0036C69.9689 34.0036 69.8635 34.0036 69.7581 34.0036C69.6527 34.0036 69.4947 33.9501 69.3893 33.9501C69.2839 33.9501 69.1259 33.8966 69.0205 33.8966C68.9151 33.8432 68.8098 33.8432 68.7571 33.8432V32.079C68.8624 32.1325 69.0205 32.1325 69.2312 32.186C69.442 32.186 69.5474 32.2394 69.6527 32.2394C70.1269 32.2394 70.4957 32.186 70.8646 32.0256C71.2334 31.8652 71.4968 31.6514 71.7602 31.3841C72.0237 31.1168 72.2344 30.7426 72.4452 30.3149C72.6559 29.8872 72.814 29.4061 72.9721 28.8715L73.657 26.4658L67.9141 8.02243H69.9689L74.5 23.2583Z" fill="white"/>
<path id="Vector_7" d="M80.7698 16.1982C80.7698 14.8083 80.9278 13.5253 81.244 12.4561C81.5601 11.3869 82.0343 10.4781 82.6138 9.72966C83.1934 8.98123 83.8783 8.44664 84.7213 8.07243C85.5643 7.69821 86.46 7.48438 87.4611 7.48438C88.4621 7.48438 89.3578 7.69821 90.2008 8.07243C91.0438 8.44664 91.7288 9.03469 92.3083 9.72966C92.8879 10.4781 93.3621 11.3869 93.6782 12.4561C93.9943 13.5253 94.1524 14.7548 94.1524 16.1982V18.1227C94.1524 19.5127 93.9943 20.7957 93.6782 21.8649C93.3621 22.9341 92.8879 23.8429 92.3083 24.5913C91.7288 25.3397 91.0438 25.8743 90.2008 26.2485C89.3578 26.6227 88.4621 26.8366 87.4611 26.8366C86.46 26.8366 85.5643 26.6227 84.7213 26.2485C83.8783 25.8743 83.1934 25.3397 82.6138 24.5913C82.0343 23.8429 81.5601 22.9875 81.244 21.8649C80.9278 20.7957 80.7698 19.5661 80.7698 18.1227V16.1982ZM82.6665 18.1227C82.6665 19.1919 82.7719 20.1542 82.9826 21.0095C83.1934 21.8649 83.5095 22.5598 83.931 23.1479C84.3525 23.7359 84.8267 24.2171 85.459 24.5378C86.0385 24.8586 86.7235 25.019 87.5138 25.019C88.3041 25.019 89.0417 24.8586 89.6213 24.5378C90.2008 24.2171 90.7277 23.7359 91.0965 23.1479C91.4653 22.5598 91.7814 21.8114 91.9922 21.0095C92.2029 20.1542 92.3083 19.1919 92.3083 18.1227V16.1982C92.3083 15.1825 92.2029 14.2202 91.9922 13.3649C91.7814 12.5095 91.4653 11.7611 91.0438 11.1731C90.6223 10.585 90.1481 10.1039 89.5159 9.78312C88.9363 9.46236 88.2514 9.30198 87.4611 9.30198C86.7235 9.30198 86.0385 9.46236 85.459 9.78312C84.8794 10.1039 84.3525 10.585 83.931 11.1731C83.5095 11.7611 83.1934 12.5095 82.9826 13.3649C82.7719 14.2202 82.6665 15.1825 82.6665 16.1982V18.1227Z" fill="white"/>
<path id="Vector_8" d="M105.849 24.2179C105.375 25.0198 104.743 25.6613 103.952 26.0889C103.162 26.5166 102.214 26.7839 101.054 26.7839C100.317 26.7839 99.6319 26.677 98.9997 26.4097C98.3674 26.1424 97.8406 25.7682 97.4191 25.1801C96.9976 24.5921 96.6288 23.8971 96.418 22.9883C96.1546 22.0795 96.0492 21.0103 96.0492 19.7273V7.85938H97.8933V19.7808C97.8933 20.743 97.9986 21.5984 98.1567 22.2399C98.3148 22.8814 98.5782 23.416 98.8943 23.8437C99.2104 24.2179 99.5793 24.5386 100.001 24.699C100.422 24.8594 100.844 24.9663 101.318 24.9663C101.95 24.9663 102.53 24.8594 103.057 24.699C103.583 24.5386 104.005 24.2713 104.374 24.004C104.743 23.6833 105.059 23.3091 105.322 22.8814C105.586 22.4537 105.744 21.9726 105.902 21.4915V7.85938H107.798V26.4097H105.902L105.849 24.2179Z" fill="white"/>
</g>
<path id="Vector_9" d="M116.808 9.51582C116.65 9.51582 116.492 9.51582 116.281 9.51582C115.754 9.51582 115.227 9.62274 114.806 9.83658C114.384 10.0504 113.963 10.3177 113.647 10.6919C113.331 11.0661 113.015 11.4938 112.751 11.9749C112.488 12.4561 112.33 13.0441 112.172 13.6322V26.4624H110.275V7.85859H112.119L112.172 10.6385C112.593 9.6762 113.12 8.92777 113.805 8.33972C114.49 7.80513 115.333 7.48438 116.334 7.48438C116.545 7.48438 116.755 7.48438 116.966 7.53783C117.177 7.59129 117.335 7.64475 117.44 7.69821C117.23 8.28626 117.019 8.92777 116.808 9.51582Z" fill="white"/>
</g>
</g>
<defs>
<clipPath id="clip0_1767_8101">
<rect width="149" height="34" fill="white"/>
</clipPath>
</defs>
</svg>
