<svg width="182" height="41" viewBox="0 0 182 41" fill="none" xmlns="http://www.w3.org/2000/svg">
<g id="Layer_1" clip-path="url(#clip0_1673_10538)">
<path id="Vector" d="M165.682 32.262C174.691 32.262 181.999 25.0368 181.999 16.131C181.999 7.22514 174.697 0 165.682 0C156.666 0 149.364 7.22514 149.364 16.131C149.364 25.0368 156.666 32.262 165.682 32.262Z" fill="#F6936E"/>
<g id="Group">
<path id="Vector_2" d="M162.264 10.3398H158.619V22.2078H157.608V10.3398H153.97V9.38672H162.264V10.3398Z" fill="white"/>
<path id="Vector_3" d="M170.078 20.7209C169.975 20.8497 169.833 21.0107 169.646 21.1974C169.46 21.3842 169.215 21.5645 168.912 21.7448C168.61 21.9251 168.243 22.0732 167.818 22.1955C167.393 22.3179 166.89 22.3823 166.324 22.3823C165.686 22.3823 165.1 22.2728 164.578 22.0539C164.057 21.8349 163.606 21.5065 163.233 21.0751C162.859 20.6436 162.569 20.1027 162.363 19.4587C162.157 18.8148 162.054 18.0742 162.054 17.2242V14.2814C162.054 13.4507 162.144 12.723 162.331 12.0919C162.518 11.4609 162.782 10.9264 163.136 10.5014C163.49 10.0764 163.922 9.75439 164.43 9.53545C164.939 9.3165 165.525 9.20703 166.175 9.20703C166.781 9.20703 167.315 9.29074 167.785 9.46461C168.249 9.63204 168.648 9.88318 168.977 10.2052C169.305 10.5271 169.556 10.9264 169.743 11.3965C169.93 11.8666 170.039 12.4075 170.084 13.0063H169.08C169.035 12.5685 168.944 12.1692 168.822 11.815C168.7 11.4609 168.519 11.1646 168.288 10.9199C168.056 10.6752 167.766 10.4885 167.425 10.3533C167.083 10.2245 166.671 10.1601 166.195 10.1601C165.152 10.1601 164.366 10.5078 163.851 11.2033C163.336 11.8987 163.072 12.9162 163.072 14.2621V17.2178C163.072 17.9133 163.149 18.5186 163.303 19.0466C163.458 19.5746 163.671 20.0125 163.954 20.3667C164.237 20.7209 164.578 20.9913 164.978 21.1717C165.377 21.352 165.834 21.4421 166.336 21.4421C166.742 21.4421 167.096 21.4035 167.412 21.3198C167.721 21.236 167.991 21.1395 168.21 21.0235C168.429 20.9076 168.616 20.7917 168.758 20.6694C168.899 20.547 169.009 20.4504 169.086 20.3731V17.0375H166.279V16.0973H170.097V20.708L170.078 20.7209Z" fill="white"/>
<path id="Vector_4" d="M176.721 19.6578C176.721 19.3938 176.683 19.1619 176.612 18.9559C176.541 18.7498 176.412 18.5631 176.232 18.3892C176.052 18.2153 175.807 18.0608 175.511 17.9191C175.214 17.7774 174.841 17.6422 174.39 17.507C173.914 17.3653 173.482 17.2108 173.102 17.0369C172.716 16.863 172.388 16.657 172.123 16.4251C171.853 16.1933 171.647 15.9164 171.505 15.6009C171.364 15.2854 171.293 14.9247 171.293 14.5062C171.293 14.0876 171.37 13.7334 171.525 13.405C171.679 13.0766 171.898 12.7933 172.175 12.555C172.452 12.3167 172.787 12.1364 173.173 12.0076C173.56 11.8788 173.985 11.8145 174.448 11.8145C174.944 11.8145 175.388 11.8917 175.781 12.0527C176.174 12.2137 176.515 12.4326 176.792 12.7095C177.069 12.9864 177.288 13.3149 177.436 13.6884C177.584 14.0618 177.661 14.4675 177.661 14.9054H176.683C176.683 14.5963 176.631 14.3065 176.535 14.0361C176.432 13.7721 176.29 13.5402 176.103 13.3471C175.916 13.1539 175.678 12.9993 175.401 12.8963C175.118 12.7868 174.802 12.7353 174.442 12.7353C174.081 12.7353 173.766 12.7804 173.495 12.877C173.225 12.9736 172.993 13.0959 172.813 13.2569C172.632 13.4179 172.497 13.6046 172.4 13.8171C172.31 14.0296 172.265 14.2615 172.265 14.4997C172.265 14.738 172.304 14.9505 172.388 15.1437C172.471 15.3369 172.606 15.5172 172.793 15.6782C172.98 15.8456 173.231 16.0001 173.54 16.1418C173.849 16.2899 174.229 16.4316 174.686 16.5668C175.156 16.7085 175.575 16.8695 175.949 17.0498C176.322 17.2301 176.638 17.4426 176.902 17.6873C177.166 17.932 177.365 18.2218 177.507 18.5437C177.649 18.8657 177.719 19.2392 177.719 19.6642C177.719 20.0892 177.642 20.4627 177.481 20.7976C177.32 21.1324 177.101 21.4158 176.811 21.6476C176.522 21.8794 176.18 22.0597 175.788 22.1821C175.395 22.3044 174.963 22.3688 174.493 22.3688C174.068 22.3688 173.65 22.3109 173.231 22.195C172.813 22.079 172.439 21.8923 172.111 21.6412C171.782 21.39 171.512 21.068 171.306 20.6752C171.1 20.2824 170.997 19.8059 170.997 19.2521H171.975C171.975 19.6707 172.046 20.0184 172.194 20.3017C172.342 20.5851 172.536 20.8105 172.774 20.9908C173.012 21.1711 173.283 21.2934 173.579 21.3707C173.875 21.448 174.184 21.4866 174.493 21.4866C174.841 21.4866 175.15 21.4415 175.427 21.3578C175.704 21.2741 175.936 21.1517 176.129 20.9908C176.322 20.8298 176.47 20.643 176.573 20.4241C176.676 20.2051 176.728 19.9604 176.728 19.6964L176.721 19.6578Z" fill="white"/>
</g>
<g id="Group_2">
<g id="Group_3">
<path id="Vector_5" d="M5.85352 16.9042L2.35686 20.9547V31.7473H0V1.64258H2.35686V17.6898L5.66677 13.5557L14.9912 1.64258H17.9469L7.44408 15.0432L18.7519 31.7473H15.8798L5.85352 16.9042Z" fill="white"/>
<path id="Vector_6" d="M20.8528 9.3756L20.9172 12.9302C21.5804 11.7196 22.424 10.7537 23.4479 10.0324C24.4718 9.31764 25.6438 8.95703 26.951 8.95703C27.8912 8.95703 28.7283 9.11158 29.4624 9.41424C30.1965 9.71689 30.8276 10.1999 31.3427 10.8631C31.8579 11.5264 32.2571 12.3764 32.534 13.4196C32.8109 14.4628 32.9462 15.7185 32.9462 17.1932V31.7465H30.673V17.1674C30.673 16.0212 30.57 15.0681 30.3704 14.2954C30.1707 13.5226 29.8874 12.9045 29.5139 12.4472C29.1404 11.99 28.6897 11.6552 28.1616 11.4556C27.6336 11.2559 27.0347 11.1529 26.3714 11.1529C25.7082 11.1529 25.0513 11.2946 24.4782 11.5779C23.9051 11.8613 23.3899 12.2347 22.9392 12.7048C22.482 13.1749 22.0892 13.7094 21.7607 14.3147C21.4323 14.92 21.1619 15.5575 20.9558 16.2144V31.74H18.6633V9.3756H20.8528Z" fill="white"/>
<path id="Vector_7" d="M35.2161 19.4212C35.2161 17.7276 35.4157 16.2272 35.8149 14.9329C36.2142 13.6386 36.7744 12.5438 37.4892 11.6552C38.204 10.7665 39.0669 10.0968 40.065 9.63962C41.0631 9.18241 42.1707 8.95703 43.3814 8.95703C44.592 8.95703 45.7254 9.18241 46.7299 9.63962C47.7345 10.0968 48.5974 10.7665 49.3122 11.6552C50.027 12.5438 50.5872 13.6386 50.9736 14.9329C51.3599 16.2272 51.566 17.7212 51.566 19.4212V21.7395C51.566 23.4331 51.3664 24.9335 50.9736 26.2278C50.5807 27.5222 50.027 28.6104 49.3122 29.4862C48.5974 30.362 47.7345 31.0252 46.7364 31.4825C45.7382 31.9397 44.6306 32.165 43.42 32.165C42.2094 32.165 41.076 31.9397 40.0715 31.4825C39.0669 31.0252 38.204 30.362 37.4892 29.4862C36.7744 28.6104 36.2142 27.5286 35.8149 26.2278C35.4157 24.9335 35.2161 23.4395 35.2161 21.7395V19.4212ZM37.5343 21.7395C37.5343 23.0209 37.6631 24.1736 37.9271 25.191C38.1911 26.2085 38.5711 27.0778 39.0733 27.799C39.5756 28.5138 40.1938 29.0676 40.9215 29.454C41.6491 29.8404 42.4863 30.0336 43.4264 30.0336C44.4181 30.0336 45.281 29.8404 46.0087 29.454C46.7364 29.0676 47.3481 28.5138 47.8311 27.799C48.314 27.0843 48.6747 26.2149 48.9194 25.191C49.1576 24.1736 49.28 23.0209 49.28 21.7395V19.4212C49.28 18.1655 49.1512 17.0257 48.8872 16.0019C48.6231 14.978 48.2432 14.1022 47.7409 13.3745C47.2386 12.6533 46.6204 12.0931 45.8928 11.7003C45.1651 11.3075 44.328 11.1078 43.3878 11.1078C42.4476 11.1078 41.6427 11.3075 40.915 11.7003C40.1938 12.0931 39.5756 12.6533 39.0733 13.3745C38.5711 14.0958 38.1847 14.9715 37.9271 16.0019C37.6631 17.0322 37.5343 18.172 37.5343 19.4212V21.7395Z" fill="white"/>
<path id="Vector_8" d="M58.613 26.6606L58.7997 27.9034L59.0509 26.5576L63.6229 9.37695H65.5484L70.0753 26.4159L70.4038 28.1739L70.6742 26.6027L74.5379 9.37695H76.8948L71.4148 31.7478H69.4893L64.6275 13.9683L64.5245 13.4338L64.4408 13.9941L59.6626 31.7543H57.7179L52.283 9.38339H54.6205L58.613 26.667V26.6606Z" fill="white"/>
<path id="Vector_9" d="M91.0625 27.96L96.4008 9.36914H98.8607L90.9852 35.3204C90.8178 35.8291 90.6117 36.4022 90.367 37.0397C90.1159 37.6708 89.7874 38.2697 89.3753 38.817C88.9632 39.3708 88.4545 39.8345 87.8556 40.2144C87.2567 40.5943 86.529 40.7811 85.6726 40.7811C85.5502 40.7811 85.4086 40.7682 85.2605 40.7489C85.1059 40.7296 84.9514 40.7038 84.7968 40.6781C84.6358 40.6523 84.4877 40.6201 84.3525 40.5879C84.2173 40.5557 84.1013 40.5235 84.0241 40.4978L84.0047 38.392C84.14 38.4307 84.3267 38.4693 84.5521 38.4951C84.7775 38.5208 84.9514 38.5337 85.0608 38.5337C85.6146 38.5337 86.0976 38.45 86.5162 38.2761C86.9347 38.1023 87.3082 37.8511 87.6302 37.5098C87.9522 37.175 88.242 36.75 88.4867 36.2477C88.7314 35.7454 88.9567 35.1594 89.1499 34.5026L90.0193 31.6048L82.9873 9.37558H85.5116L91.0753 27.9665L91.0625 27.96Z" fill="white"/>
<path id="Vector_10" d="M98.6863 19.4212C98.6863 17.7276 98.8859 16.2272 99.2851 14.9329C99.6844 13.6386 100.245 12.5438 100.959 11.6552C101.674 10.7665 102.537 10.0968 103.535 9.63962C104.533 9.18241 105.641 8.95703 106.852 8.95703C108.062 8.95703 109.196 9.18241 110.2 9.63962C111.205 10.0968 112.068 10.7665 112.782 11.6552C113.497 12.5438 114.051 13.6386 114.444 14.9329C114.837 16.2272 115.036 17.7212 115.036 19.4212V21.7395C115.036 23.4331 114.843 24.9335 114.444 26.2278C114.051 27.5222 113.497 28.6104 112.782 29.4862C112.068 30.362 111.205 31.0252 110.207 31.4825C109.208 31.9397 108.101 32.165 106.89 32.165C105.68 32.165 104.546 31.9397 103.542 31.4825C102.537 31.0252 101.674 30.362 100.959 29.4862C100.245 28.6104 99.6844 27.5286 99.2851 26.2278C98.8859 24.9335 98.6863 23.4395 98.6863 21.7395V19.4212ZM101.005 21.7395C101.005 23.0209 101.133 24.1736 101.397 25.191C101.661 26.2085 102.041 27.0778 102.544 27.799C103.046 28.5138 103.664 29.0676 104.392 29.454C105.119 29.8404 105.956 30.0336 106.89 30.0336C107.882 30.0336 108.745 29.8404 109.472 29.454C110.2 29.0676 110.812 28.5138 111.295 27.799C111.778 27.0843 112.138 26.2149 112.383 25.191C112.621 24.1736 112.744 23.0209 112.744 21.7395V19.4212C112.744 18.1655 112.615 17.0257 112.351 16.0019C112.087 14.978 111.707 14.1022 111.205 13.3745C110.702 12.6533 110.084 12.0931 109.357 11.7003C108.629 11.3075 107.792 11.1078 106.858 11.1078C105.924 11.1078 105.113 11.3075 104.385 11.7003C103.664 12.0931 103.046 12.6533 102.544 13.3745C102.041 14.0958 101.655 14.9715 101.397 16.0019C101.133 17.0322 101.005 18.172 101.005 19.4212V21.7395Z" fill="white"/>
<path id="Vector_11" d="M129.355 29.0819C128.763 30.0478 127.99 30.8012 127.03 31.3486C126.071 31.8959 124.886 32.1664 123.463 32.1664C122.542 32.1664 121.698 32.0118 120.939 31.7027C120.179 31.3937 119.535 30.8978 118.994 30.2217C118.453 29.5455 118.041 28.6762 117.745 27.6072C117.448 26.5383 117.3 25.2375 117.3 23.7113V9.37695H119.573V23.7499C119.573 24.9348 119.683 25.9265 119.902 26.7186C120.121 27.5106 120.423 28.1481 120.81 28.6311C121.196 29.1141 121.641 29.4554 122.143 29.6679C122.645 29.8739 123.18 29.977 123.746 29.977C124.545 29.977 125.253 29.8739 125.865 29.6679C126.477 29.4618 127.011 29.172 127.455 28.7985C127.906 28.425 128.28 27.9807 128.582 27.4655C128.885 26.9504 129.13 26.3773 129.304 25.7591V9.37695H131.622V31.7478H129.387L129.349 29.0819H129.355Z" fill="white"/>
</g>
<path id="Vector_12" d="M142.758 11.4105C142.558 11.3912 142.346 11.3783 142.107 11.3783C141.431 11.3783 140.819 11.5006 140.278 11.7389C139.731 11.9772 139.255 12.3185 138.842 12.7499C138.43 13.1814 138.076 13.703 137.78 14.3083C137.484 14.9136 137.252 15.5769 137.084 16.2916V31.74H134.792V9.3756H137.046L137.084 12.7241C137.593 11.5522 138.269 10.6313 139.113 9.9616C139.956 9.29189 140.987 8.95703 142.217 8.95703C142.468 8.95703 142.725 8.98279 143.002 9.04075C143.279 9.0987 143.479 9.15666 143.601 9.22749C143.273 9.9294 142.989 10.6571 142.764 11.4105" fill="white"/>
</g>
</g>
<defs>
<clipPath id="clip0_1673_10538">
<rect width="182" height="40.7814" fill="white"/>
</clipPath>
</defs>
</svg>
